<?xml version="1.0" encoding="UTF-8"?>
<svg width="143px" height="32px" viewBox="0 0 143 32" version="1.1" xmlns="http://www.w3.org/2000/svg" xmlns:xlink="http://www.w3.org/1999/xlink">
    <!-- Generator: Sketch 63 (92445) - https://sketch.com -->
    <title>Tech logo - 横版</title>
    <desc>Created with Sketch.</desc>
    <g id="Tech-logo---横版" stroke="none" stroke-width="1" fill="none" fill-rule="evenodd">
        <g fill-rule="nonzero">
            <rect id="矩形" fill-opacity="0.95" fill="#FFFFFF" x="41.2024242" y="3.14909091" width="1" height="25.7006061"></rect>
            <g id="编组">
                <path d="M15.3636364,3.52363636 C15.449697,3.60848485 15.6327273,3.82181818 15.4860606,3.95757576 C13.5515152,5.08242424 11.1175758,5.79636364 9.10909091,5.87636364 C8.75393939,5.79757576 9.28969697,4.85090909 9.46424242,4.76969697 C9.47636364,4.76363636 9.49454545,4.76121212 9.50787879,4.75757576 C11.1284848,4.69333333 13.0933333,4.11757576 14.6557576,3.20848485 C14.8824242,3.13575758 15.2545455,3.41454545 15.3636364,3.52363636" id="路径" fill="#FFFFFF"></path>
                <path d="M8.59030303,5.42181818 C8.48727273,5.60727273 8.32969697,5.83515152 8.16,5.8630303 C7.77575758,5.83515152 7.4169697,5.77818182 7.09212121,5.69090909 C6.37454545,5.4969697 5.90181818,5.17454545 5.66909091,4.76727273 C5.65454545,4.50909091 6.65333333,3.79393939 6.73090909,3.86181818 C6.91878788,4.19030303 7.30060606,4.45090909 7.88,4.60727273 C8.1430303,4.67878788 8.43272727,4.72363636 8.74181818,4.74666667 C8.90909091,4.8230303 8.59393939,5.41575758 8.59030303,5.42181818" id="路径" fill="#FFFFFF"></path>
                <path d="M17.7672727,0.0666666667 C17.8824242,0.0715151515 18.2678788,0.0933333333 18.3563636,0.191515152 C18.6351515,1.06666667 17.9648485,2.24363636 16.3927273,3.37333333 C16,3.54787879 15.3139394,2.8969697 15.3636364,2.76727273 C15.3672727,2.75636364 15.3806061,2.74545455 15.3878788,2.7369697 C16.6569697,1.82545455 17.1987879,0.875151515 16.9733333,0.168484848 C17.0084848,0.0812121212 17.5018182,0.0557575758 17.7672727,0.0666666667" id="路径" fill="#FFFFFF"></path>
                <path d="M19.3393939,4.36 C19.4460606,4.45212121 19.6751515,4.68606061 19.5127273,4.88121212 C19.2448485,5.09818182 18.9527273,5.31515152 18.6387879,5.52969697 C17.2181818,6.50424242 15.5284848,7.31151515 13.790303,7.90060606 C13.2436364,7.99636364 13.0824242,7.13090909 13.2933333,6.85939394 C13.32,6.82424242 13.3721212,6.79151515 13.4121212,6.77090909 C14.9466667,6.25090909 16.4387879,5.53818182 17.6933333,4.67757576 C17.9709091,4.48727273 18.2278788,4.29575758 18.4642424,4.10424242 C18.7624242,3.94545455 19.230303,4.26545455 19.3393939,4.36" id="路径" fill="#FFFFFF"></path>
                <path d="M6.19636364,8.32969697 C5.90666667,8.87878788 5.75636364,8.82787879 5.19636364,8.63757576 C4.2230303,8.30787879 3.75636364,7.98666667 3.34909091,7.36484848 C3.27757576,7.04121212 4.02060606,6.24242424 4.16969697,6.28121212 C4.26545455,6.30666667 4.30909091,6.46424242 4.36606061,6.54424242 C4.56484848,6.83030303 5.05939394,7.23636364 6.27757576,7.54060606 C6.52727273,7.67272727 6.19878788,8.32363636 6.19636364,8.32969697" id="路径" fill="#FFFFFF"></path>
                <path d="M12.5115152,7.79030303 C12.5515152,8.32363636 12.3733333,8.36 11.5151515,8.53939394 C9.67515152,8.92242424 8.47878788,9.03030303 6.94545455,8.95030303 C6.55272727,8.83515152 6.89575758,7.94666667 7.23878788,7.74060606 C7.27393939,7.72 7.32727273,7.70666667 7.36848485,7.70060606 C8.74909091,7.80363636 10.3854545,7.61090909 12.0375758,7.18181818 C12.390303,7.15151515 12.5018182,7.65454545 12.5115152,7.79030303" id="路径" fill-opacity="0.95" fill="#FFFFFF"></path>
                <path d="M21.1818182,0.441212121 C21.2933333,0.47030303 21.6618182,0.574545455 21.7587879,0.723636364 C22.0533333,1.64848485 21.6169697,2.80484848 20.4775758,3.99878788 C20.0872727,4.2630303 19.2266667,3.60363636 19.289697,3.37212121 C19.2933333,3.35757576 19.3078788,3.34060606 19.3151515,3.32727273 C20.3212121,2.27393939 20.7054545,1.25212121 20.4460606,0.436363636 C20.4472727,0.427878788 20.4484848,0.416969697 20.449697,0.408484848 C20.6072727,0.295757576 21.1757576,0.44 21.1818182,0.441212121" id="路径" fill-opacity="0.95" fill="#FFFFFF"></path>
                <path d="M24.3551515,1.47272727 C24.4569697,1.52363636 24.7987879,1.70545455 24.9018182,1.8969697 C25.1818182,2.7769697 24.9393939,3.8230303 24.1866667,4.93090909 C23.8254545,5.27151515 22.9793939,4.46060606 23.0218182,4.21818182 C23.0254545,4.2 23.0375758,4.17818182 23.0436364,4.16121212 C23.7369697,3.13939394 23.9612121,2.17454545 23.7030303,1.36242424 C23.7030303,1.35151515 23.7030303,1.33818182 23.7030303,1.32848485 C23.8230303,1.20969697 24.3333333,1.46181818 24.3551515,1.47272727" id="路径" fill-opacity="0.95" fill="#FFFFFF"></path>
                <path d="M27.1830303,3.11636364 C27.2969697,3.20727273 27.5733333,3.44363636 27.6739394,3.6630303 C28.1624242,5.19636364 27.2872727,7.16484848 25.1042424,9.15393939 C24.5963636,9.49454545 23.9769697,8.71393939 24.1030303,8.27272727 C24.1187879,8.21939394 24.1624242,8.15757576 24.1975758,8.11393939 C26.2690909,6.22545455 27.1006061,4.35757576 26.6363636,2.90181818 C26.6351515,2.88969697 26.6327273,2.87393939 26.6315152,2.86181818 C26.670303,2.84121212 26.7684848,2.78424242 27.1830303,3.11636364" id="路径" fill-opacity="0.95" fill="#FFFFFF"></path>
                <path d="M19.7260606,8.13212121 C19.7963636,8.25818182 19.929697,8.57575758 19.6339394,8.80727273 C16.969697,10.3563636 13.7890909,11.4812121 10.809697,12.0072727 C10.2121212,12.0278788 10.1878788,11.1757576 10.4618182,10.8436364 C10.5466667,10.7406061 10.6339394,10.7115152 10.7042424,10.689697 C13.4521212,10.2036364 16.3866667,9.16727273 18.8448485,7.7369697 C19.289697,7.55515152 19.6533333,8.00242424 19.7260606,8.13212121" id="路径" fill-opacity="0.95" fill="#FFFFFF"></path>
                <path d="M4.36848485,11.4557576 C4.31030303,11.5951515 4.14666667,11.9151515 3.88606061,11.8872727 C2.76121212,11.5260606 2.00848485,10.9745455 1.61939394,10.2945455 C1.49575758,9.90666667 2.05212121,9.02545455 2.19757576,9.08363636 C2.20727273,9.08727273 2.2169697,9.10060606 2.22424242,9.10909091 C2.5830303,9.73575758 3.27757576,10.2448485 4.31515152,10.5781818 C4.59757576,10.7393939 4.42909091,11.3115152 4.36848485,11.4557576" id="路径" fill-opacity="0.95" fill="#FFFFFF"></path>
                <path d="M9.35151515,11.6824242 C9.32606061,11.8654545 9.23515152,12.1842424 8.90181818,12.2642424 C7.62424242,12.3793939 6.41818182,12.3684848 5.34787879,12.2145455 C4.84363636,12.0448485 5.18666667,11.0763636 5.51272727,10.9115152 C5.55393939,10.8909091 5.61818182,10.8824242 5.66545455,10.88 C6.65333333,11.0218182 7.76484848,11.0327273 8.94424242,10.9260606 C9.42909091,10.9575758 9.35272727,11.6751515 9.35151515,11.6824242" id="路径" fill-opacity="0.95" fill="#FFFFFF"></path>
                <path d="M23.1042424,5.41939394 C23.2121212,5.52242424 23.4448485,5.78787879 23.2884848,6.02909091 C22.7490909,6.59515152 22.0836364,7.16848485 21.2957576,7.73454545 C20.7212121,8.03272727 20.1478788,7.22909091 20.2751515,6.88363636 C20.2933333,6.83515152 20.3406061,6.7830303 20.3769697,6.74666667 C21.1042424,6.22424242 21.7175758,5.69575758 22.2157576,5.17333333 C22.5163636,4.95757576 22.9939394,5.31272727 23.1042424,5.41939394" id="路径" fill-opacity="0.95" fill="#FFFFFF"></path>
                <path d="M18.5284848,30.76 C18.5733333,30.9236364 18.3115152,30.9915152 18.2242424,31.0145455 C15.630303,31.5466667 13.1515152,31.6230303 11.2933333,31.1224242 C11.1212121,31.0763636 10.9575758,31.0254545 10.8024242,30.9709091 C10.3333333,30.7854545 9.70787879,30.5357576 9.24848485,30.3272727 C9.26787879,30.3357576 9.29454545,30.3478788 9.31393939,30.3563636 C9.61818182,30.4921212 9.95636364,30.6121212 10.3309091,30.7127273 C12.3345455,31.2533333 15.0072727,31.1709091 17.8036364,30.5963636 C18.32,30.5175758 18.5066667,30.7054545 18.5284848,30.76" id="路径" fill="#FFFFFF"></path>
                <path d="M30.7224242,23.7466667 C30.6787879,23.8230303 30.52,24.0909091 30.3369697,24.3684848 C29.6969697,25.32 28.6618182,26.32 27.2412121,27.2933333 C25.2678788,28.6460606 22.8642424,29.7333333 20.4363636,30.4569697 C19.9212121,30.5842424 19.7527273,30.3757576 19.8363636,30.2254545 C19.9078788,30.0957576 20.1054545,30.0254545 20.1890909,29.9951515 C22.8072727,29.2145455 25.3987879,28.0424242 27.5272727,26.5830303 C29.0581818,25.5333333 30.1745455,24.4557576 30.8654545,23.4290909 C30.8812121,23.4084848 30.9018182,23.3818182 30.9163636,23.3612121 C30.8993939,23.4242424 30.889697,23.4569697 30.7224242,23.7466667" id="路径" fill="#FDFDFD"></path>
                <path d="M23.5539394,30.1054545 C23.5260606,30.1418182 23.4315152,30.24 23.1551515,30.3660606 C20.6254545,31.4436364 17.8133333,32.0327273 15.5769697,31.9236364 C15.2363636,31.8981818 14.7818182,31.8654545 14.4436364,31.8278788 L13.5430303,31.6945455 C16.2084848,32.1454545 19.9454545,31.4824242 23.2533333,30.0727273 C23.4193939,30.0084848 23.4412121,30.0084848 23.5490909,30.009697 C23.5575758,30.0278788 23.5684848,30.0533333 23.5757576,30.0715152 C23.5684848,30.08 23.5612121,30.0957576 23.5539394,30.1054545" id="路径" fill="#FDFDFD"></path>
                <path d="M27.0727273,28.0593939 C26.8024242,28.2824242 26.5054545,28.5054545 26.1830303,28.7260606 C25.7345455,29.0327273 25.2581818,29.3224242 24.76,29.5927273 C24.5915152,29.6787879 24.5793939,29.6715152 24.5430303,29.649697 C24.5624242,29.5527273 24.7927273,29.3527273 25.0545455,29.2048485 C26.2812121,28.5078788 27.4836364,27.7769697 28.7054545,26.489697 C28.049697,27.1745455 27.750303,27.4872727 27.0727273,28.0593939" id="路径" fill="#FDFDFD"></path>
                <path d="M31.7987879,21.16 C31.6957576,21.4969697 31.569697,21.7345455 31.5272727,21.8121212 C30.7248485,23.0109091 29.4993939,24.1939394 27.8169697,25.3466667 C24.2460606,27.7939394 19.4872727,29.5066667 15.2521212,30.0751515 C14.6072727,30.12 14.2812121,29.7563636 14.4,29.5648485 C14.4630303,29.4630303 14.6024242,29.4339394 14.7139394,29.4109091 C19.1624242,28.8145455 24.1587879,27.0157576 27.9090909,24.4460606 C29.6751515,23.2351515 30.9624242,21.9927273 31.7587879,20.8084848 C31.7806061,20.7842424 31.809697,20.7527273 31.8315152,20.7284848 C31.8812121,20.8909091 31.8812121,20.8909091 31.7987879,21.16" id="路径" fill="#FDFDFD"></path>
                <path d="M13.3745455,29.9709091 C13.4266667,30.0581818 13.4618182,30.2084848 13.1212121,30.2460606 C11.5587879,30.310303 10.12,30.1915152 8.90545455,29.8630303 C8.76363636,29.8254545 8.62787879,29.7842424 8.49575758,29.7418182 C8.09939394,29.5951515 7.57939394,29.2533333 7.48484848,29.0763636 C7.49212121,29.0654545 7.5030303,29.0509091 7.51030303,29.04 C7.54545455,29.0424242 7.59151515,29.0521212 7.62545455,29.0606061 C7.76363636,29.1054545 7.90787879,29.1478788 8.05575758,29.1878788 C9.33090909,29.5321212 10.8412121,29.6581818 12.4812121,29.590303 C13.0412121,29.6036364 13.3284848,29.8933333 13.3745455,29.9709091" id="路径" fill="#FFFFFF"></path>
                <path d="M29.5612121,5.33333333 C29.6545455,5.44848485 29.8812121,5.7430303 29.9793939,5.98787879 C30.3975758,7.29818182 29.9078788,8.89818182 28.5418182,10.5721212 C28.1454545,10.9272727 27.6533333,10.1866667 27.6630303,9.74545455 C27.6654545,9.60363636 27.7127273,9.52727273 27.750303,9.46424242 C29.0763636,7.84 29.550303,6.28848485 29.1454545,5.0169697 C29.1430303,5.00363636 29.1393939,4.98666667 29.1369697,4.97333333 C29.1466667,4.96606061 29.1587879,4.95636364 29.1684848,4.95030303 C29.2060606,4.96969697 29.3078788,5.01939394 29.5612121,5.33333333" id="路径" fill-opacity="0.95" fill="#FFFFFF"></path>
                <path d="M11.7236602,14.8024242 C11.7248485,14.9539394 11.6812121,15.3187879 11.2666667,15.4460606 C9.72242424,15.72 8.2230303,15.8557576 6.84484848,15.8375758 C6.16363636,15.7321212 6.31878788,14.7163636 6.68121212,14.5090909 C6.73090909,14.48 6.80969697,14.4654545 6.86787879,14.4581818 C8.1769697,14.4763636 9.59878788,14.3466667 11.0654545,14.0872727 C11.6921212,14.0545455 11.7236602,14.7951515 11.7236602,14.8024242" id="路径" fill="#E95514"></path>
                <path d="M5.41333333,15.2036364 C5.3769697,15.3854545 5.26545455,15.6909091 4.9369697,15.6969697 C4.46181818,15.630303 4.00969697,15.5406061 3.58424242,15.4254545 C2.04848485,15.0109091 1.03878788,14.3212121 0.540606061,13.4509091 C0.363636364,12.9975758 0.712727273,12.0860606 0.854545455,12.1612121 C0.865454545,12.1672727 0.875151515,12.1830303 0.883636364,12.1927273 C1.35636364,13.0193939 2.31515152,13.6739394 3.77212121,14.0666667 C4.17575758,14.1757576 4.60484848,14.2618182 5.05575758,14.3236364 C5.53939394,14.4715152 5.41454545,15.1963636 5.41333333,15.2036364" id="路径" fill="#E95514"></path>
                <path d="M7.59757583,18.8206061 C7.59151515,18.9684848 7.53333333,19.3175758 7.12606061,19.3648485 C5.80242424,19.3490909 4.57818182,19.2024242 3.50909091,18.9139394 C1.82181818,18.4581818 0.711515152,17.7006061 0.164848485,16.7442424 C0.0206060606,16.4206061 0.00606060606,15.6424242 0.139393939,15.4218182 C0.156363636,15.4193939 0.178181818,15.4169697 0.195151515,15.4145455 C0.203636364,15.4254545 0.215757576,15.44 0.224242424,15.4509091 C0.755151515,16.3781818 1.83151515,17.1139394 3.46787879,17.5551515 C4.50545455,17.8351515 5.69333333,17.9769697 6.9769697,17.9927273 C7.6,18.08 7.59757583,18.8133333 7.59757583,18.8206061" id="路径" fill="#E95514"></path>
                <path d="M7.04121212,25.329697 C7.07878788,25.4787879 7.09090909,25.7284848 6.73818182,25.7175758 C6.19636364,25.6424242 5.68121212,25.5393939 5.19515152,25.4084848 C3.44363636,24.9357576 2.29212121,24.1490909 1.72363636,23.1563636 C1.69212121,23.0993939 1.66181818,23.0424242 1.63151515,22.9842424 L1.25212121,22.2036364 C1.18060606,22.0424242 1.16,21.9975758 1.13818182,21.9284848 C1.14909091,21.9418182 1.16484848,21.96 1.17575758,21.9733333 C1.74787879,22.9745455 2.91030303,23.7672727 4.67515152,24.2436364 C5.16484848,24.3757576 5.68484848,24.4787879 6.23030303,24.5551515 C6.77454545,24.6884848 7.00848485,25.2 7.04121212,25.329697" id="路径" fill="#E95514"></path>
                <path d="M18.4569697,23.8169697 C18.4715152,23.950303 18.4545455,24.28 17.9781847,24.4715152 C15.7333333,25.1430303 13.4715152,25.5927273 11.3587879,25.7806061 C10.5769697,25.7781818 10.3078788,25.0254545 10.5830303,24.7515152 C10.6739394,24.6606061 10.7939394,24.6375758 10.889697,24.6193939 C13.0193939,24.430303 15.2993939,23.9769697 17.5636364,23.2993939 C18.2424242,23.1624242 18.4412121,23.6727273 18.4569697,23.8169697" id="路径" fill="#E95514"></path>
                <path d="M19.4193939,26.5139394 C19.4290909,26.6230303 19.4036364,26.8945455 18.9515152,27.0690909 C16.4036364,27.8315152 13.8327273,28.2921212 11.5090909,28.3842424 C10.8072727,28.3575758 10.4109091,27.7951515 10.6642424,27.5636364 C10.7381818,27.4957576 10.8472727,27.4824242 10.9357576,27.470303 C13.3236364,27.3757576 15.9660606,26.9030303 18.5854545,26.1187879 C19.3357576,25.9587879 19.4193939,26.5078788 19.4193939,26.5139394" id="路径" fill="#E95514"></path>
                <path d="M9.58060606,28.0327273 C9.63272727,28.150303 9.66909091,28.3490909 9.32,28.3539394 C8.43393939,28.289697 7.60606061,28.1587879 6.85454545,27.9551515 C5.53575758,27.5987879 4.5769697,27.0557576 3.96848485,26.3745455 C3.66787879,26.009697 3.25939394,25.5272727 2.97575758,25.1478788 C3.57818182,25.9684848 4.63393939,26.6193939 6.15151515,27.0290909 C6.92363636,27.2375758 7.77454545,27.3721212 8.68606061,27.4387879 C9.24848485,27.5272727 9.53454545,27.929697 9.58060606,28.0327273" id="路径" fill="#E95514"></path>
                <path d="M18.6981818,20.1648485 C18.7187879,20.3151515 18.7139394,20.6872727 18.24,20.9042424 C16.4412121,21.5163636 14.6109091,21.9890909 12.8339394,22.3030303 C12.0606061,22.3575758 11.7733333,21.5442424 12.1272727,21.1648485 C12.2290909,21.0557576 12.3527273,21.0206061 12.4509091,20.9915152 C14.2072727,20.6812121 16.0181818,20.2133333 17.7963636,19.6084848 C18.5648485,19.4290909 18.6969697,20.1575758 18.6981818,20.1648485" id="路径" fill="#E95514"></path>
                <path d="M3.89939394,21.7769697 C3.91030303,21.9127273 3.90181818,22.2230303 3.58424242,22.1672727 C2.08,21.6836364 1.07272727,20.9466667 0.552727273,20.0375758 C0.370909091,19.670303 0.173333333,18.7818182 0.255757576,18.6969697 C0.273939394,18.7078788 0.292121212,18.7309091 0.304242424,18.7478788 C0.818181818,19.6460606 1.81333333,20.3757576 3.30181818,20.8533333 C3.75272727,21.0618182 3.88848485,21.6351515 3.89939394,21.7769697" id="路径" fill="#E95514"></path>
                <path d="M23.590303,9.69818182 C23.68,9.86181818 23.7890909,10.1781818 23.4969697,10.4509091 C23.36,10.5490909 23.2193939,10.6484848 23.0763636,10.7466667 C20.3454545,12.6181818 16.9418182,14.0739394 13.5830303,14.9406061 C12.8775758,15.0351515 12.710303,14.1624242 12.9854545,13.7975758 C13.0739394,13.6812121 13.1781818,13.64 13.2618182,13.6072727 C16.449697,12.7842424 19.68,11.4036364 22.2727273,9.62666667 C22.4084848,9.53333333 22.5418182,9.44 22.6715152,9.34666667 C23.2060606,9.0569697 23.5866667,9.69212121 23.590303,9.69818182" id="路径" fill="#E95514"></path>
                <path d="M27.2387879,11.1684848 C27.3042424,11.3066667 27.430303,11.6618182 27.1709091,11.969697 C26.5236364,12.5624242 25.7709091,13.1575758 24.9127273,13.7454545 C20.8654545,16.52 15.4715152,18.4606061 10.670303,19.1042424 C9.91515152,19.1187879 9.79151515,18.230303 10.1066667,17.8993939 C10.2084848,17.7927273 10.3224242,17.7636364 10.4145455,17.7393939 C15.0715152,17.1151515 20.3018182,15.2327273 24.2278788,12.5418182 C25.0593939,11.9721212 25.790303,11.3951515 26.4181818,10.8193939 C26.8884848,10.4945455 27.2351515,11.1624242 27.2387879,11.1684848" id="路径" fill="#FDFDFD"></path>
                <path d="M32.710303,12.0824242 L32.769697,12.4 C32.8557576,13.3466667 33.0569697,15.5648485 28.8678788,19.0060606 C28.3793939,19.3236364 28.1660606,18.7818182 28.2363636,18.3684848 C28.2921212,18.0363636 28.4690909,17.8630303 28.5442424,17.7890909 C31.6375758,15.2957576 32.9539394,12.7709091 32.409697,10.8278788 L32.710303,12.0824242" id="路径" fill="#FDFDFD"></path>
                <path d="M27.2084848,19.6618182 C27.2206061,19.8048485 27.2048485,20.1733333 26.8036364,20.4860606 C24.9272727,21.6969697 22.8060606,22.7406061 20.6060606,23.5781818 C19.8472727,23.7915152 19.6072727,23.1442424 19.8157576,22.7478788 C19.9248485,22.5393939 20.0715152,22.4678788 20.2133333,22.3987879 C22.4327273,21.5539394 24.569697,20.5006061 26.4630303,19.28 C27.0218182,18.9927273 27.1927273,19.4715152 27.2084848,19.6618182" id="路径" fill="#FDFDFD"></path>
                <path d="M33.0254545,15.0254545 C33.0157576,15.4509091 33.0157576,16.0181818 32.9890909,16.4424242 C32.8521212,18.3636364 31.1309091,20.6860606 27.8933333,22.9054545 C25.9769697,24.2181818 23.7551515,25.3418182 21.4375758,26.2242424 C20.72,26.4363636 20.5309091,25.9054545 20.7466667,25.5636364 C20.8606061,25.3830303 21.009697,25.3127273 21.1406061,25.2509091 C23.5224242,24.3442424 25.8060606,23.1890909 27.7757576,21.84 C31.2993939,19.4242424 33.0763636,16.889697 33.0206061,14.8521212 L33.0254545,15.0254545" id="路径" fill="#FDFDFD"></path>
                <path d="M27.169697,15.7357576 C27.2072727,15.8860606 27.2545455,16.2715152 26.8921212,16.5963636 C26.7345455,16.7090909 26.5745455,16.8230303 26.409697,16.9357576 C24.7381818,18.0812121 22.8472727,19.0909091 20.8606061,19.9357576 C20.1175758,20.1648485 19.8290909,19.4472727 20.0133333,19.0230303 C20.110303,18.8 20.2509091,18.7224242 20.3878788,18.6472727 C22.3515152,17.8133333 24.2218182,16.8145455 25.8751515,15.6812121 C26.0375758,15.569697 26.1975758,15.4581818 26.3527273,15.3454545 C26.9575758,15.0012121 27.1684848,15.7272727 27.169697,15.7357576" id="路径" fill="#FDFDFD"></path>
                <path d="M31.3587879,8.06181818 C31.4109091,8.16848485 31.5890909,8.53575758 31.6848485,8.80848485 C32.2448485,10.5660606 31.2436364,12.8206061 28.7442424,15.1018182 C28.2521212,15.449697 27.9224242,14.7648485 27.9818182,14.3054545 C28.0133333,14.0630303 28.0993939,13.9636364 28.1842424,13.8678788 C30.6557576,11.6121212 31.6460606,9.38181818 31.0921212,7.64363636 C31.0884848,7.63030303 31.0836364,7.61212121 31.08,7.59878788 C31.1624242,7.67757576 31.1781818,7.69212121 31.3587879,8.06181818" id="路径" fill="#FDFDFD"></path>
            </g>
            <g id="编组" transform="translate(50.060606, 4.363636)">
                <g>
                    <g transform="translate(0.000000, 0.121212)" fill="#FFFFFF">
                        <path d="M8.19757576,0.763636364 C7.18666667,0.263030303 5.98545455,0.0133333333 4.59272727,0.0133333333 L4.00848485,0.0133333333 L4.00848485,2.13454545 L4.37454545,2.13454545 C5.75515152,2.13454545 6.8230303,2.47878788 7.57939394,3.16848485 C8.33575758,3.85818182 8.71393939,4.82909091 8.71393939,6.08242424 C8.71393939,7.32363636 8.33575758,8.28969697 7.57939394,8.97818182 C6.8230303,9.66787879 5.75393939,10.0133333 4.37454545,10.0133333 L4.00848485,10.0133333 L4.00848485,12.1854545 L4.59272727,12.1854545 C5.98424242,12.1854545 7.18666667,11.929697 8.19757576,11.4181818 C9.20848485,10.9066667 9.97939394,10.1915152 10.5127273,9.27151515 C11.0448485,8.35151515 11.3115152,7.28848485 11.3115152,6.08121212 C11.3115152,4.8630303 11.0448485,3.79757576 10.5127273,2.88242424 C9.97939394,1.96969697 9.20727273,1.2630303 8.19757576,0.763636364 Z" id="路径"></path>
                        <rect id="矩形" x="0.0351515152" y="0.0133333333" width="2.54787879" height="12.1721212"></rect>
                    </g>
                    <g transform="translate(12.727273, 0.000000)" fill="#FFFFFF" id="路径">
                        <path d="M4.53939394,9.68606061 C3.96969697,9.36484848 3.52606061,8.90181818 3.20484848,8.29818182 C2.88363636,7.69454545 2.72363636,6.99030303 2.72363636,6.18545455 C2.72363636,5.38060606 2.88363636,4.67757576 3.20484848,4.07272727 C3.52606061,3.46909091 3.96969697,3.00727273 4.53939394,2.68484848 C4.92,2.47030303 5.34424242,2.33333333 5.80606061,2.26181818 L5.80606061,0.00121212121 C4.88727273,0.0872727273 4.03636364,0.332121212 3.25939394,0.753939394 C2.28484848,1.28242424 1.51636364,2.02060606 0.952727273,2.96969697 C0.389090909,3.91878788 0.107878788,4.99030303 0.107878788,6.18545455 C0.107878788,7.38060606 0.389090909,8.45575758 0.952727273,9.40969697 C1.51636364,10.3636364 2.28484848,11.1054545 3.25939394,11.6339394 C4.03636364,12.0557576 4.88727273,12.3018182 5.80606061,12.3866667 L5.80606061,10.1090909 C5.34424242,10.0375758 4.92,9.90060606 4.53939394,9.68606061 Z"></path>
                        <path d="M9.77818182,0.755151515 C9.00121212,0.333333333 8.15030303,0.0884848485 7.23151515,0.00242424242 L7.23151515,2.2630303 C7.69333333,2.33454545 8.11757576,2.47151515 8.49818182,2.68606061 C9.06666667,3.00848485 9.51151515,3.47030303 9.83272727,4.07393939 C10.1527273,4.67757576 10.3139394,5.38181818 10.3139394,6.18666667 C10.3139394,6.99151515 10.1539394,7.69454545 9.83272727,8.29939394 C9.51151515,8.9030303 9.06666667,9.36606061 8.49818182,9.68727273 C8.11757576,9.90181818 7.69333333,10.0387879 7.23151515,10.110303 L7.23151515,12.3878788 C8.15030303,12.3030303 9.00121212,12.0569697 9.77818182,11.6351515 C10.7527273,11.1066667 11.5212121,10.3660606 12.0836364,9.41090909 C12.6460606,8.45575758 12.9284848,7.38181818 12.9284848,6.18666667 C12.9284848,4.99151515 12.6472727,3.92 12.0836364,2.97090909 C11.52,2.02181818 10.7527273,1.28363636 9.77818182,0.755151515 Z"></path>
                    </g>
                    <g transform="translate(27.151515, 0.000000)" fill="#FFFFFF" id="路径">
                        <path d="M4.45939394,9.68606061 C3.88969697,9.36484848 3.44606061,8.90181818 3.12484848,8.29818182 C2.80363636,7.69454545 2.64363636,6.99030303 2.64363636,6.18545455 C2.64363636,5.38060606 2.80363636,4.67757576 3.12484848,4.07272727 C3.44606061,3.46909091 3.88969697,3.00727273 4.45939394,2.68484848 C4.84,2.47030303 5.26424242,2.33333333 5.72606061,2.26181818 L5.72606061,0.00121212121 C4.80727273,0.0872727273 3.95636364,0.332121212 3.17939394,0.753939394 C2.20484848,1.28242424 1.43636364,2.02060606 0.872727273,2.96969697 C0.309090909,3.91878788 0.0278787879,4.99030303 0.0278787879,6.18545455 C0.0278787879,7.38060606 0.309090909,8.45575758 0.872727273,9.40969697 C1.43636364,10.3636364 2.20484848,11.1054545 3.17939394,11.6339394 C3.95636364,12.0557576 4.80727273,12.3018182 5.72606061,12.3866667 L5.72606061,10.1090909 C5.26545455,10.0375758 4.84,9.90060606 4.45939394,9.68606061 Z"></path>
                        <path d="M9.69818182,0.755151515 C8.92121212,0.333333333 8.07030303,0.0884848485 7.15151515,0.00242424242 L7.15151515,2.2630303 C7.61333333,2.33454545 8.03757576,2.47151515 8.41818182,2.68606061 C8.98666667,3.00848485 9.43151515,3.47030303 9.75272727,4.07393939 C10.0727273,4.67757576 10.2339394,5.38181818 10.2339394,6.18666667 C10.2339394,6.99151515 10.0739394,7.69454545 9.75272727,8.29939394 C9.43151515,8.9030303 8.98666667,9.36606061 8.41818182,9.68727273 C8.03757576,9.90181818 7.61333333,10.0387879 7.15151515,10.110303 L7.15151515,12.3878788 C8.07030303,12.3030303 8.92121212,12.0569697 9.69818182,11.6351515 C10.6727273,11.1066667 11.4412121,10.3660606 12.0036364,9.41090909 C12.5660606,8.45575758 12.8484848,7.38181818 12.8484848,6.18666667 C12.8484848,4.99151515 12.5672727,3.92 12.0036364,2.97090909 C11.44,2.02181818 10.6727273,1.28363636 9.69818182,0.755151515 Z"></path>
                    </g>
                    <polygon id="路径" fill="#FFFFFF" points="44.9745455 2.06545455 48.4981818 2.06545455 48.4981818 12.3066667 51.0581818 12.3066667 51.0581818 2.06545455 54.5987879 2.06545455 54.5987879 0.134545455 44.9745455 0.134545455"></polygon>
                    <g transform="translate(56.606061, 0.121212)">
                        <g transform="translate(4.000000, 0.000000)" fill="#E95513" id="路径">
                            <path d="M4.06787879,11.2109091 L4.06787879,11.2109091 C4.06787879,10.6727273 3.63151515,10.2363636 3.09333333,10.2363636 L0.0557575758,10.2363636 L0.0557575758,12.1842449 L3.09333333,12.1842449 C3.63151515,12.1854545 4.06787879,11.7490909 4.06787879,11.2109091 Z"></path>
                            <path d="M4.06787879,0.978181818 L4.06787879,0.978181818 C4.06787879,0.444848485 3.63515152,0.0121212121 3.10181818,0.0121212121 L0.0557575758,0.0121212121 L0.0557575758,1.94303284 L3.10181818,1.94303284 C3.63515152,1.94424242 4.06787879,1.51151515 4.06787879,0.978181818 Z"></path>
                            <path d="M3.55030303,6.03030303 L3.55030303,6.03030303 C3.55030303,5.51636364 3.13333333,5.09939394 2.61939394,5.09939394 L0.0557575758,5.09939394 L0.0557575758,6.96121212 L2.61939394,6.96121212 C3.13333333,6.96121212 3.55030303,6.54424242 3.55030303,6.03030303 Z"></path>
                        </g>
                        <rect id="矩形" fill="#FFFFFF" x="0.0763636364" y="0.0133333333" width="2.55393939" height="12.1721212"></rect>
                    </g>
                    <g transform="translate(66.181818, 0.000000)" fill="#FFFFFF" id="路径">
                        <path d="M4.36848485,9.68606061 C3.82424242,9.36484848 3.4,8.90424242 3.09818182,8.30666667 C2.79515152,7.70909091 2.64363636,7.01333333 2.64363636,6.22060606 C2.64363636,5.41575758 2.79515152,4.71515152 3.09818182,4.11757576 C3.4,3.52 3.82424242,3.06060606 4.36848485,2.73818182 C4.70666667,2.53818182 5.07272727,2.40848485 5.4630303,2.33212121 L5.4630303,0.0557575758 C4.54666667,0.144242424 3.72,0.387878788 2.98909091,0.797575758 C2.0569697,1.32 1.33333333,2.05333333 0.819393939,2.99636364 C0.304242424,3.93818182 0.0472727273,5.01333333 0.0472727273,6.22060606 C0.0472727273,7.41575758 0.304242424,8.48484848 0.819393939,9.42787879 C1.33333333,10.3709091 2.06060606,11.1030303 2.99878788,11.6266667 C3.73212121,12.0351515 4.55636364,12.2787879 5.4630303,12.3684848 L5.4630303,10.0933333 C5.07272727,10.0157576 4.70666667,9.88606061 4.36848485,9.68606061 Z"></path>
                        <path d="M10.2145455,11.2375758 C11.2678788,10.4557576 11.9636364,9.39272727 12.3030303,8.04727273 L9.61575758,8.04727273 C9.3369697,8.7030303 8.90424242,9.21939394 8.31757576,9.59878788 C7.90181818,9.86787879 7.4230303,10.0363636 6.88727273,10.1151515 L6.88727273,12.3842424 C8.19878788,12.2921212 9.30787879,11.910303 10.2145455,11.2375758 Z"></path>
                        <path d="M8.31757576,2.82424242 C8.90424242,3.20363636 9.3369697,3.72 9.61575758,4.37575758 L12.3030303,4.37575758 C11.9636364,3.03151515 11.2678788,1.96848485 10.2145455,1.18666667 C9.30787879,0.513939394 8.19757576,0.132121212 6.88727273,0.0387878788 L6.88727273,2.30909091 C7.4230303,2.38666667 7.90060606,2.55515152 8.31757576,2.82424242 Z"></path>
                    </g>
                    <g transform="translate(80.242424, 0.121212)" fill="#FFFFFF">
                        <rect id="矩形" x="0.0836363636" y="0.0133333333" width="2.55757576" height="12.1721212"></rect>
                        <polygon id="路径" points="8.12848485 0.0133333333 8.12848485 4.94424242 4.06787879 4.94424242 4.06787879 6.89212121 8.12848485 6.89212121 8.12848485 12.1854545 10.7066667 12.1854545 10.7066667 0.0133333333"></polygon>
                    </g>
                </g>
                <g transform="translate(0.000000, 18.666667)" fill="#FFFFFF">
                    <polygon id="路径" points="0.785454545 0.688484848 0.785454545 2.03515152 2.4969697 2.03515152 2.4969697 2.58909091 0.785454545 2.58909091 0.785454545 3.96727273 2.69454545 3.96727273 2.69454545 4.55272727 0.0351515152 4.55272727 0.0351515152 0.109090909 2.69454545 0.109090909 2.69454545 0.688484848 0.785454545 0.688484848"></polygon>
                    <polygon id="路径" points="6.5769697 4.55393939 5.46424242 2.91151515 4.47030303 4.55393939 3.60848485 4.55393939 5.04969697 2.28848485 3.57575758 0.11030303 4.47030303 0.11030303 5.56242424 1.72121212 6.54909091 0.11030303 7.41090909 0.11030303 5.97575758 2.33818182 7.47030303 4.55393939 6.5769697 4.55393939"></polygon>
                    <path d="M9.28242424,2.82909091 L9.28242424,4.55393939 L8.53212121,4.55393939 L8.53212121,0.11030303 L10.1115152,0.11030303 C10.6472727,0.11030303 11.049697,0.231515152 11.3187879,0.475151515 C11.5890909,0.718787879 11.7236364,1.05212121 11.7236364,1.47636364 C11.7236364,1.89575758 11.5854545,2.22666667 11.3090909,2.46787879 C11.0327273,2.70909091 10.6339394,2.83030303 10.1115152,2.83030303 L9.28242424,2.83030303 L9.28242424,2.82909091 Z M10.96,1.47515152 C10.96,1.2230303 10.8860606,1.03151515 10.7393939,0.899393939 C10.5927273,0.767272727 10.3563636,0.700606061 10.0315152,0.700606061 L9.28121212,0.700606061 L9.28121212,2.24242853 L10.0315152,2.24242853 C10.6509091,2.24363636 10.96,1.98787879 10.96,1.47515152 Z" id="形状"></path>
                    <polygon id="路径" points="13.6327273 3.99393939 15.2387879 3.99393939 15.2387879 4.55393939 12.8824242 4.55393939 12.8824242 0.11030303 13.6327273 0.11030303"></polygon>
                    <path d="M19.6436364,0.343030303 C19.9927273,0.535757576 20.2666667,0.806060606 20.4666667,1.15151515 C20.6666667,1.49818182 20.7660606,1.88848485 20.7660606,2.32484848 C20.7660606,2.76121212 20.6666667,3.15272727 20.4666667,3.49939394 C20.2666667,3.84606061 19.9927273,4.11636364 19.6436364,4.31151515 C19.2945455,4.50666667 18.9054545,4.60363636 18.4751515,4.60363636 C18.0412121,4.60363636 17.649697,4.50666667 17.3006061,4.31151515 C16.9515152,4.11636364 16.6763636,3.84606061 16.4751515,3.49939394 C16.2727273,3.15272727 16.1721212,2.76242424 16.1721212,2.32484848 C16.1721212,1.88848485 16.2727273,1.4969697 16.4751515,1.15151515 C16.6763636,0.804848485 16.9527273,0.535757576 17.3006061,0.343030303 C17.6484848,0.15030303 18.0412121,0.0533333333 18.4751515,0.0533333333 C18.9054545,0.0533333333 19.2957576,0.149090909 19.6436364,0.343030303 Z M17.68,0.915151515 C17.4472727,1.04484848 17.2666667,1.23151515 17.1369697,1.47515152 C17.0072727,1.71878788 16.9430303,2.00242424 16.9430303,2.32484848 C16.9430303,2.64848485 17.0072727,2.93090909 17.1369697,3.17454545 C17.2666667,3.41818182 17.4472727,3.60484848 17.68,3.73454545 C17.9127273,3.86424242 18.1781818,3.92969697 18.4763636,3.92969697 C18.769697,3.92969697 19.0327273,3.86424242 19.2630303,3.73454545 C19.4933333,3.60484848 19.6727273,3.41818182 19.8024242,3.17454545 C19.9321212,2.93090909 19.9963636,2.64848485 19.9963636,2.32484848 C19.9963636,2.00242424 19.9321212,1.71878788 19.8024242,1.47515152 C19.6727273,1.23151515 19.4933333,1.04484848 19.2630303,0.915151515 C19.0327273,0.785454545 18.7709091,0.72 18.4763636,0.72 C18.1769697,0.72 17.9127273,0.785454545 17.68,0.915151515 Z" id="形状"></path>
                    <path d="M24.4654545,4.55393939 L23.3066667,2.77939394 L22.7733333,2.77939394 L22.7733333,4.55393939 L22.0230303,4.55393939 L22.0230303,0.11030303 L23.6618182,0.11030303 C24.1927273,0.11030303 24.5951515,0.233939394 24.8690909,0.481212121 C25.1430303,0.728484848 25.28,1.05575758 25.28,1.4630303 C25.28,1.81090909 25.1781818,2.0969697 24.9745455,2.31878788 C24.7709091,2.54181818 24.4751515,2.68363636 24.089697,2.74666667 L25.3066667,4.55272727 L24.4654545,4.55272727 L24.4654545,4.55393939 Z M22.7733333,2.26909091 L23.6024242,2.26909091 C24.2084848,2.26909091 24.510303,2.01333333 24.510303,1.50060606 C24.510303,1.2569697 24.4363636,1.06787879 24.289697,0.930909091 C24.1430303,0.795151515 23.9139394,0.726060606 23.6024242,0.726060606 L22.7733333,0.726060606 L22.7733333,2.26909091 Z" id="形状"></path>
                    <polygon id="路径" points="27.209697 0.688484848 27.209697 2.03515152 28.9212121 2.03515152 28.9212121 2.58909091 27.209697 2.58909091 27.209697 3.96727273 29.1187879 3.96727273 29.1187879 4.55272727 26.4593939 4.55272727 26.4593939 0.109090909 29.1187879 0.109090909 29.1187879 0.688484848 27.209697 0.688484848"></polygon>
                    <polygon id="路径" points="35.3769697 0.11030303 35.3769697 0.68969697 34.08 0.68969697 34.08 4.55393939 33.3236364 4.55393939 33.3236364 0.68969697 32.0339394 0.68969697 32.0339394 0.11030303"></polygon>
                    <path d="M38.8775758,4.55393939 L37.7187879,2.77939394 L37.1854545,2.77939394 L37.1854545,4.55393939 L36.4351515,4.55393939 L36.4351515,0.11030303 L38.0739394,0.11030303 C38.6048485,0.11030303 39.0072727,0.233939394 39.2812121,0.481212121 C39.5551515,0.728484848 39.6921212,1.05575758 39.6921212,1.4630303 C39.6921212,1.81090909 39.590303,2.0969697 39.3866667,2.31878788 C39.1830303,2.54181818 38.8872727,2.68363636 38.5018182,2.74666667 L39.7187879,4.55272727 L38.8775758,4.55272727 L38.8775758,4.55393939 Z M37.1866667,2.26909091 L38.0157576,2.26909091 C38.6218182,2.26909091 38.9236364,2.01333333 38.9236364,1.50060606 C38.9236364,1.2569697 38.849697,1.06787879 38.7030303,0.930909091 C38.5563636,0.795151515 38.3272727,0.726060606 38.0157576,0.726060606 L37.1866667,0.726060606 L37.1866667,2.26909091 Z" id="形状"></path>
                    <path d="M43.6424242,3.59030303 L41.6812121,3.59030303 L41.3260606,4.55393939 L40.5236364,4.55393939 L42.2351515,0.179393939 L43.0969697,0.179393939 L44.8012121,4.55393939 L43.9987879,4.55393939 L43.6424242,3.59030303 Z M43.4327273,3.03636364 L42.6630303,0.958787879 L41.8933333,3.03636364 L43.4327273,3.03636364 Z" id="形状"></path>
                    <path d="M49.5624242,3.49939394 C49.3721212,3.83272727 49.0933333,4.09212121 48.7260606,4.27636364 C48.36,4.46060606 47.9224242,4.55393939 47.4133333,4.55393939 L45.8606061,4.55393939 L45.8606061,0.11030303 L47.4133333,0.11030303 C47.9224242,0.11030303 48.36,0.201212121 48.7260606,0.384242424 C49.0921212,0.567272727 49.3709091,0.824242424 49.5624242,1.15515152 C49.7527273,1.48727273 49.8484848,1.87757576 49.8484848,2.32606061 C49.8484848,2.77454545 49.7539394,3.16606061 49.5624242,3.49939394 Z M48.6375758,3.48969697 C48.9357576,3.21212121 49.0848485,2.82424242 49.0848485,2.32484848 C49.0848485,1.82545455 48.9357576,1.43757576 48.6375758,1.16 C48.3393939,0.883636364 47.9115152,0.744242424 47.3539394,0.744242424 L46.609697,0.744242424 L46.609697,3.90425033 L47.3539394,3.90425033 C47.9115152,3.90545455 48.3393939,3.76727273 48.6375758,3.48969697 Z" id="形状"></path>
                    <polygon id="路径" points="51.8557576 0.11030303 51.8557576 4.55393939 51.1054545 4.55393939 51.1054545 0.11030303 51.8557576 0.11030303"></polygon>
                    <polygon id="路径" points="57.0230303 4.55393939 56.2727273 4.55393939 54.0157576 1.27515152 54.0157576 4.55393939 53.2654545 4.55393939 53.2654545 0.116363636 54.0157576 0.116363636 56.2727273 3.40848485 56.2727273 0.116363636 57.0230303 0.116363636"></polygon>
                    <path d="M61.9381818,0.461818182 C62.3066667,0.722424242 62.550303,1.07636364 62.6690909,1.52606061 L61.8787879,1.52606061 C61.7781818,1.28727273 61.6121212,1.09575758 61.3818182,0.952727273 C61.1515152,0.80969697 60.8787879,0.738181818 60.5624242,0.738181818 C60.2727273,0.738181818 60.0133333,0.803636364 59.7830303,0.933333333 C59.5527273,1.0630303 59.3721212,1.24848485 59.2436364,1.48727273 C59.1139394,1.72606061 59.049697,2.00727273 59.049697,2.33090909 C59.049697,2.67030303 59.1151515,2.96242424 59.2472727,3.20606061 C59.3793939,3.44969697 59.5636364,3.63515152 59.8036364,3.76363636 C60.0424242,3.89212121 60.32,3.95515152 60.6363636,3.95515152 C61.0218182,3.95515152 61.3539394,3.84121212 61.630303,3.61212121 C61.9066667,3.3830303 62.0739394,3.07030303 62.1309091,2.67151515 L60.4266667,2.67151515 L60.4266667,2.1430303 L62.7624242,2.1430303 L62.7624242,2.82909091 C62.710303,3.15636364 62.5878788,3.45333333 62.3975758,3.72 C62.2072727,3.98666667 61.9539394,4.19878788 61.6412121,4.35878788 C61.3272727,4.51878788 60.9684848,4.59757576 60.5648485,4.59757576 C60.1127273,4.59757576 59.7139394,4.50060606 59.3672727,4.30787879 C59.0206061,4.11515152 58.7527273,3.84727273 58.5648485,3.50545455 C58.3757576,3.16363636 58.2812121,2.77212121 58.2812121,2.33212121 C58.2812121,1.89090909 58.3757576,1.50060606 58.5648485,1.15757576 C58.7539394,0.815757576 59.0193939,0.549090909 59.3648485,0.358787879 C59.7090909,0.168484848 60.1078788,0.0727189321 60.56,0.0727189321 C61.1090909,0.0715151515 61.569697,0.202424242 61.9381818,0.461818182 Z" id="路径"></path>
                    <polygon id="路径" points="68.8036364 0.11030303 68.8036364 0.68969697 66.809697 0.68969697 66.809697 2.06787879 68.4545455 2.06787879 68.4545455 2.62181818 66.809697 2.62181818 66.809697 4.55393939 66.0593939 4.55393939 66.0593939 0.11030303 68.8036364 0.11030303"></polygon>
                    <path d="M70.6921212,0.11030303 L70.6921212,2.74787879 C70.6921212,3.14181818 70.7830303,3.43636364 70.9648485,3.62909091 C71.1466667,3.82181818 71.4024242,3.91878788 71.7321212,3.91878788 C72.0569697,3.91878788 72.310303,3.82181818 72.4921212,3.62909091 C72.6739394,3.43636364 72.7648485,3.14181818 72.7648485,2.74787879 L72.7648485,0.11030303 L73.5151515,0.11030303 L73.5151515,2.74787879 C73.5151515,3.35636364 73.350303,3.8169697 73.0218182,4.12969697 C72.6933333,4.44242424 72.2581818,4.59878788 71.7187879,4.59878788 C71.1830303,4.59878788 70.7539394,4.44242424 70.4290909,4.12969697 C70.1042424,3.8169697 69.9418182,3.35636364 69.9418182,2.74787879 L69.9418182,0.11030303 L70.6921212,0.11030303 Z" id="路径"></path>
                    <polygon id="路径" points="77.8787879 0.11030303 77.8787879 0.68969697 76.5818182 0.68969697 76.5818182 4.55393939 75.8254545 4.55393939 75.8254545 0.68969697 74.5357576 0.68969697 74.5357576 0.11030303"></polygon>
                    <path d="M79.6557576,0.11030303 L79.6557576,2.74787879 C79.6557576,3.14181818 79.7466667,3.43636364 79.9284848,3.62909091 C80.110303,3.82181818 80.3660606,3.91878788 80.6957576,3.91878788 C81.0206061,3.91878788 81.2739394,3.82181818 81.4557576,3.62909091 C81.6375758,3.43636364 81.7284848,3.14181818 81.7284848,2.74787879 L81.7284848,0.11030303 L82.4787879,0.11030303 L82.4787879,2.74787879 C82.4787879,3.35636364 82.3139394,3.8169697 81.9854545,4.12969697 C81.6569697,4.44242424 81.2218182,4.59878788 80.6824242,4.59878788 C80.1466667,4.59878788 79.7175758,4.44242424 79.3927273,4.12969697 C79.0678788,3.8169697 78.9054545,3.35636364 78.9054545,2.74787879 L78.9054545,0.11030303 L79.6557576,0.11030303 Z" id="路径"></path>
                    <path d="M86.2957576,4.55393939 L85.1369697,2.77939394 L84.6036364,2.77939394 L84.6036364,4.55393939 L83.8533333,4.55393939 L83.8533333,0.11030303 L85.4921212,0.11030303 C86.0230303,0.11030303 86.4254545,0.233939394 86.6993939,0.481212121 C86.9733333,0.728484848 87.110303,1.05575758 87.110303,1.4630303 C87.110303,1.81090909 87.0084848,2.0969697 86.8048485,2.31878788 C86.6012121,2.54181818 86.3054545,2.68363636 85.92,2.74666667 L87.1369697,4.55272727 L86.2957576,4.55272727 L86.2957576,4.55393939 Z M84.6048485,2.26909091 L85.4339394,2.26909091 C86.04,2.26909091 86.3418182,2.01333333 86.3418182,1.50060606 C86.3418182,1.2569697 86.2678788,1.06787879 86.1212121,0.930909091 C85.9745455,0.795151515 85.7454545,0.726060606 85.4339394,0.726060606 L84.6048485,0.726060606 L84.6048485,2.26909091 Z" id="形状"></path>
                    <polygon id="路径" points="89.04 0.688484848 89.04 2.03515152 90.7515152 2.03515152 90.7515152 2.58909091 89.04 2.58909091 89.04 3.96727273 90.9490909 3.96727273 90.9490909 4.55272727 88.289697 4.55272727 88.289697 0.109090909 90.9490909 0.109090909 90.9490909 0.688484848 89.04 0.688484848"></polygon>
                </g>
            </g>
        </g>
        <rect id="矩形" fill-opacity="0" fill="#D8D8D8" x="0" y="0" width="143" height="32"></rect>
    </g>
</svg>